<?xml version="1.0" encoding="utf-8"?>
<!-- Generator: Adobe Illustrator 23.0.2, SVG Export Plug-In . SVG Version: 6.00 Build 0)  -->
<svg version="1.1" id="Warstwa_1" xmlns="http://www.w3.org/2000/svg" xmlns:xlink="http://www.w3.org/1999/xlink" x="0px" y="0px"
	 viewBox="0 0 157 99" style="enable-background:new 0 0 157 99;" xml:space="preserve">
<style type="text/css">
	.st0{fill-rule:evenodd;clip-rule:evenodd;fill:#2F9C9A;}
	.st1{fill:#2F9C9A;}
	.st2{enable-background:new    ;}
	.st3{fill:#244B5C;}
</style>
<title>Group</title>
<desc>Created with Sketch.</desc>
<g id="Symbols">
	<g id="Header" transform="translate(-858.000000, 0.000000)">
		<g id="Group" transform="translate(0.000000, -9.000000)">
			<g transform="translate(857.000000, 9.000000)">
				<g id="Group-4" transform="translate(33.543784, 0.000000)">
					<path id="Combined-Shape-Copy-17" class="st0" d="M47.1,0l0,49.2h-3.7V0H47.1z"/>
					<path id="Rectangle-Copy-60" class="st1" d="M44.8,10.9v1.8H43c-4.6,0-8.3-3.7-8.3-8.3V2.6h1.8C41.1,2.6,44.8,6.3,44.8,10.9z"
						/>
					<path id="Path-Copy-21" class="st1" d="M77,12C77,12,76.9,12,76.9,12C62.1,20.7,50,33.4,42,48.6l3.3,1.7
						C53,35.7,64.7,23.4,79,15L77,12z"/>
					<path id="Path-Copy-22" class="st1" d="M13.6,12c0.1,0,0.1,0.1,0.1,0.1c14.8,8.7,26.9,21.4,34.9,36.6l-3.3,1.7
						c-7.7-14.7-19.4-27-33.8-35.3L13.6,12z"/>
					<path id="Path-Copy-23" class="st1" d="M6.3,28.7c14.3,1.9,27,9.3,35.8,20.5l2.9-2.3C35.7,35.1,22.3,27.2,7.2,25.1
						c0,0-0.1,0-0.2,0L6.3,28.7z"/>
					<path id="Rectangle-Copy-14" class="st1" d="M56.3,1.9h1.8v1.8c0,7.1-5.7,12.8-12.8,12.8h-1.8v-1.8C43.5,7.7,49.2,1.9,56.3,1.9
						z M47.4,12.7c3.4-0.8,6.1-3.5,6.8-6.8C50.8,6.6,48.2,9.3,47.4,12.7z"/>
					<path id="Shape" class="st1" d="M54.1,15.4l1.3-1.3l1.3,1.3c5,5,5,13.1,0,18.1l-1.3,1.3l-1.3-1.3C49,28.5,49,20.4,54.1,15.4z
						 M55.4,29.3c1.8-3,1.8-6.7,0-9.7C53.5,22.6,53.5,26.4,55.4,29.3z"/>
					<path id="Shape-Copy-5" class="st1" d="M24.7,6L26,4.7L27.3,6c5,5,5,13.1,0,18.1L26,25.5l-1.3-1.3C19.6,19.2,19.6,11,24.7,6z
						 M26,19.9c1.8-3,1.8-6.7,0-9.7C24.1,13.2,24.1,17,26,19.9z"/>
					<path id="Rectangle-Copy-15" class="st1" d="M32.5,18.4v-1.8h1.8c7.1,0,12.8,5.7,12.8,12.8v1.8h-1.8
						C38.2,31.3,32.5,25.5,32.5,18.4z M43.2,27.4c-0.8-3.4-3.5-6.1-6.8-6.8C37.1,23.9,39.8,26.6,43.2,27.4z"/>
					<path id="Path-Copy-24" class="st1" d="M84.3,28.7C70,30.6,57.3,38,48.5,49.2l-2.9-2.3c9.2-11.8,22.7-19.7,37.7-21.8
						c0,0,0.1,0,0.2,0L84.3,28.7z"/>
					<path id="Combined-Shape-Copy-6" class="st0" d="M42.5,53.3c0-1.3-1-2.5-2.3-2.7l0,0L0,39l1.4-5.3l39.9,11.5c1.5,0.3,2.9,1,4,2
						l0,0l0.2-0.2c1.1-0.9,2.3-1.5,3.8-1.8l39.9-11.5l1.4,5.3L50.3,50.6c-1.3,0.2-2.3,1.4-2.3,2.7l-2.8,0L42.5,53.3z"/>
					<path id="Path" class="st1" d="M68.2,19.9l-1.3,1.3l-1.3-1.3c-3.2-3.2-3.2-8.5,0-11.7l1.3-1.3l1.3,1.3
						C71.4,11.4,71.4,16.7,68.2,19.9z"/>
				</g>
				<g class="st2">
					<path class="st3" d="M9,81H2V65.9h5.5c2.9,0,5.1,1.8,5.1,4.5c0,1-0.3,1.9-0.9,2.5c1.6,0.6,2.5,1.9,2.5,3.6
						C14.2,79.1,12,81,9,81z M5.8,69.2v2.7h1.4c0.9,0,1.5-0.5,1.5-1.3s-0.6-1.3-1.5-1.3H5.8z M8.8,75h-3v2.7h3
						c0.9,0,1.5-0.4,1.5-1.3S9.7,75,8.8,75z"/>
					<path class="st3" d="M23.7,65.6c4.4-0.1,8.3,3.5,8.2,7.9c0.1,4.4-3.8,7.9-8.2,7.9c-4.4,0.1-8.2-3.5-8.2-7.9
						C15.4,69.1,19.2,65.5,23.7,65.6z M23.7,69.2c-2.4,0-4.1,1.7-4.1,4.2c0,1.3,0.4,2.3,1.1,3.1c0.8,0.8,1.8,1.1,3,1.1
						c2.3,0,4.1-1.7,4.1-4.2C27.8,70.9,26,69.2,23.7,69.2z"/>
					<path class="st3" d="M41.5,65.6c4.4-0.1,8.3,3.5,8.2,7.9c0.1,4.4-3.8,7.9-8.2,7.9c-4.4,0.1-8.2-3.5-8.2-7.9
						C33.3,69.1,37.1,65.5,41.5,65.6z M41.5,69.2c-2.4,0-4.1,1.7-4.1,4.2c0,1.3,0.4,2.3,1.1,3.1c0.8,0.8,1.8,1.1,3,1.1
						c2.3,0,4.1-1.7,4.1-4.2C45.7,70.9,43.9,69.2,41.5,69.2z"/>
					<path class="st3" d="M61.7,81l-5.8-7.6V81h-3.9V65.9h3.9v6.9l5-6.9h4.6l-5.2,7.2l6.1,7.9H61.7z"/>
					<path class="st3" d="M74.3,65.9h10.3v3.6h-6.3v2.9h5.1v3.6h-5.1V81h-3.9V65.9z"/>
					<path class="st3" d="M94,65.6c4.4-0.1,8.3,3.5,8.2,7.9c0.1,4.4-3.8,7.9-8.2,7.9c-4.4,0.1-8.2-3.5-8.2-7.9
						C85.8,69.1,89.6,65.5,94,65.6z M94.1,69.2c-2.4,0-4.1,1.7-4.1,4.2c0,1.3,0.4,2.3,1.1,3.1c0.8,0.8,1.8,1.1,3,1.1
						c2.3,0,4.1-1.7,4.1-4.2C98.2,70.9,96.4,69.2,94.1,69.2z"/>
					<path class="st3" d="M113.5,81l-3.4-4.7h-1.6V81h-4V65.9h5.9c3.4,0,5.9,2.1,5.9,5.2c0,1.9-0.9,3.4-2.4,4.3l4,5.6H113.5z
						 M108.4,72.9h2c1.1,0,1.8-0.7,1.8-1.8c0-1.1-0.7-1.8-1.8-1.8h-2V72.9z"/>
					<path class="st3" d="M119.5,65.9H130v3.6h-6.6v2.1h4.7v3.3h-4.7v2.6h6.8V81h-10.8V65.9z"/>
					<path class="st3" d="M134.4,75.9c0.9,1.2,1.8,2,3.4,2c1,0,1.6-0.4,1.6-1.1c0-0.7-0.3-0.9-1.5-1.4l-1.6-0.7
						c-2.5-1.1-3.8-2.5-3.8-4.6c0-2.7,2.2-4.5,5.3-4.5c2.5,0,4.3,1.2,5.2,3.1l-2.6,2c-0.7-1.1-1.4-1.6-2.5-1.6c-0.8,0-1.4,0.3-1.4,1
						c0,0.6,0.3,0.8,1.3,1.2l1.7,0.7c2.6,1.1,3.9,2.4,3.9,4.6c0,2.9-2.4,4.7-5.6,4.7c-2.7,0-4.9-1.3-6-3.4L134.4,75.9z"/>
					<path class="st3" d="M148.9,69.4h-4.5v-3.6h13v3.6h-4.5V81h-3.9V69.4z"/>
				</g>
				<g class="st2">
					<path class="st3" d="M12.8,96.7H9.7v-7.3h2.5c1.3,0,2.2,0.8,2.2,1.9c0,0.6-0.2,1-0.6,1.4c0.8,0.3,1.4,1,1.4,1.9
						C15.2,95.8,14.2,96.7,12.8,96.7z M10.8,90.5v2h1.3c0.7,0,1.1-0.4,1.1-1c0-0.6-0.4-1-1.1-1H10.8z M12.7,93.5h-1.9v2.3h1.9
						c0.8,0,1.3-0.4,1.3-1.1S13.5,93.5,12.7,93.5z"/>
					<path class="st3" d="M19,91.2c1.6,0,2.9,1.3,2.9,2.8c0,1.5-1.3,2.9-2.9,2.8c-1.6,0-2.9-1.3-2.9-2.8
						C16.1,92.5,17.4,91.2,19,91.2z M19,92.3c-1,0-1.7,0.8-1.7,1.8s0.7,1.8,1.7,1.8c1,0,1.7-0.8,1.7-1.8C20.6,93,19.9,92.3,19,92.3z
						"/>
					<path class="st3" d="M25.7,91.2c1.6,0,2.9,1.3,2.9,2.8c0,1.5-1.3,2.9-2.9,2.8c-1.6,0-2.9-1.3-2.9-2.8
						C22.8,92.5,24.1,91.2,25.7,91.2z M25.7,92.3c-1,0-1.7,0.8-1.7,1.8s0.7,1.8,1.7,1.8c1,0,1.7-0.8,1.7-1.8
						C27.4,93,26.6,92.3,25.7,92.3z"/>
					<path class="st3" d="M29.9,88.5H31v8.3h-1.2V88.5z M34.8,96.7h-1.4l-2.4-3l2.1-2.4h1.4l-2.2,2.4L34.8,96.7z"/>
					<path class="st3" d="M35.9,95.1c0.5,0.5,0.9,0.8,1.5,0.8c0.5,0,0.9-0.2,0.9-0.6c0-0.3-0.2-0.5-0.8-0.7L37,94.3
						c-1-0.4-1.4-0.8-1.4-1.6c0-1,0.8-1.6,1.9-1.6c0.8,0,1.4,0.3,1.9,0.8l-0.6,0.7c-0.3-0.4-0.8-0.6-1.3-0.6c-0.5,0-0.7,0.2-0.7,0.5
						c0,0.3,0.2,0.4,0.7,0.6l0.5,0.2c1,0.4,1.5,0.9,1.5,1.6c0,0.5-0.2,0.9-0.6,1.2c-0.4,0.3-0.9,0.4-1.4,0.4c-0.9,0-1.7-0.4-2.2-1
						L35.9,95.1z"/>
					<path class="st3" d="M43.9,89.5h1.2v7.3h-1.2V89.5z"/>
					<path class="st3" d="M47.1,89.5h1.3l-0.5,3H47L47.1,89.5z"/>
					<path class="st3" d="M55.1,91.3l-2.6,5.5H52l-2.6-5.5h1.2l1.6,3.6l1.6-3.6H55.1z"/>
					<path class="st3" d="M56.7,94.4c0.1,0.9,0.8,1.4,1.8,1.4c0.6,0,1.1-0.2,1.6-0.6l0.6,0.8c-0.6,0.6-1.3,0.9-2.2,0.9
						c-1.7,0-2.9-1.2-2.9-2.8c0-1.6,1.3-2.9,2.8-2.8c1.4,0,2.5,1.1,2.5,2.5c0,0.2,0,0.5-0.1,0.7H56.7z M59.7,93.5
						c0-0.8-0.6-1.3-1.4-1.3s-1.4,0.5-1.6,1.3H59.7z"/>
					<path class="st3" d="M68.4,92.3H68c-0.9,0-1.6,0.5-1.6,1.5v2.9h-1.2v-5.4h1.1V92c0.4-0.5,1-0.8,1.6-0.8c0.2,0,0.3,0,0.4,0.1
						V92.3z"/>
					<path class="st3" d="M70.1,94.4c0.1,0.9,0.8,1.4,1.8,1.4c0.6,0,1.1-0.2,1.6-0.6L74,96c-0.6,0.6-1.3,0.9-2.2,0.9
						c-1.7,0-2.9-1.2-2.9-2.8c0-1.6,1.3-2.9,2.8-2.8c1.4,0,2.5,1.1,2.5,2.5c0,0.2,0,0.5-0.1,0.7H70.1z M73.1,93.5
						c0-0.8-0.6-1.3-1.4-1.3s-1.4,0.5-1.6,1.3H73.1z"/>
					<path class="st3" d="M79.9,96.7h-1.1v-0.6c-0.4,0.5-1,0.7-1.7,0.7c-1.1,0-1.9-0.6-1.9-1.6s0.8-1.5,2-1.5h1.5v-0.4
						c0-0.8-0.4-1.2-1.2-1.2c-0.6,0-1,0.3-1.5,0.8l-0.7-0.7c0.5-0.8,1.3-1.2,2.3-1.2c1.3,0,2.2,0.8,2.2,2.3V96.7z M78.7,94.6h-1.4
						c-0.6,0-1,0.2-1,0.7c0,0.5,0.4,0.7,0.9,0.7C78.1,96,78.7,95.4,78.7,94.6L78.7,94.6z"/>
					<path class="st3" d="M86.8,88.5v8.3h-1.1V96c-0.4,0.6-1.1,0.9-1.9,0.9c-1.5,0-2.6-1.2-2.6-2.8c0-1.6,1.1-2.9,2.6-2.8
						c0.8,0,1.4,0.3,1.8,0.8v-3.5H86.8z M84,92.3c-0.9,0-1.7,0.7-1.7,1.8s0.7,1.8,1.7,1.8c0.8,0,1.6-0.6,1.6-1.8
						C85.6,92.9,84.8,92.3,84,92.3z"/>
					<path class="st3" d="M88.6,95.6h1.3l-0.5,3.1h-0.9L88.6,95.6z"/>
					<path class="st3" d="M97.1,91.2c1.6,0,2.9,1.3,2.9,2.8c0,1.5-1.3,2.9-2.9,2.8c-1.6,0-2.9-1.3-2.9-2.8
						C94.2,92.5,95.6,91.2,97.1,91.2z M97.1,92.3c-1,0-1.7,0.8-1.7,1.8s0.7,1.8,1.7,1.8c1,0,1.7-0.8,1.7-1.8
						C98.8,93,98.1,92.3,97.1,92.3z"/>
					<path class="st3" d="M109.5,91.3l-2.4,5.5h-0.4l-1.7-3.6l-1.7,3.6h-0.4l-2.4-5.5h1.2l1.4,3.5l1.6-3.7h0.4l1.7,3.6l1.4-3.5
						H109.5z"/>
					<path class="st3" d="M115.2,96.7h-1.2v-3.2c0-0.8-0.5-1.3-1.2-1.3c-0.7,0-1.2,0.5-1.2,1.3v3.2h-1.2v-5.4h1.1v0.5
						c0.4-0.4,0.9-0.7,1.6-0.7c1.3,0,2,0.9,2,2.2V96.7z"/>
					<path class="st3" d="M117,95.6h1.3l-0.5,3.1h-0.9L117,95.6z"/>
					<path class="st3" d="M131.1,91.3l-2.4,5.5h-0.4l-1.7-3.6l-1.7,3.6h-0.4l-2.4-5.5h1.2l1.4,3.5l1.6-3.7h0.4l1.7,3.6l1.4-3.5
						H131.1z"/>
					<path class="st3" d="M136.2,96.7h-1.1v-0.6c-0.4,0.5-1,0.7-1.7,0.7c-1.1,0-1.9-0.6-1.9-1.6s0.8-1.5,2-1.5h1.5v-0.4
						c0-0.8-0.4-1.2-1.2-1.2c-0.6,0-1,0.3-1.5,0.8l-0.7-0.7c0.5-0.8,1.3-1.2,2.3-1.2c1.3,0,2.2,0.8,2.2,2.3V96.7z M135,94.6h-1.4
						c-0.6,0-1,0.2-1,0.7c0,0.5,0.4,0.7,0.9,0.7C134.4,96,135,95.4,135,94.6L135,94.6z"/>
					<path class="st3" d="M142.5,96.7h-1.2v-3.2c0-0.8-0.5-1.3-1.2-1.3c-0.7,0-1.2,0.5-1.2,1.3v3.2h-1.2v-5.4h1.1v0.5
						c0.4-0.4,0.9-0.7,1.6-0.7c1.3,0,2,0.9,2,2.2V96.7z"/>
					<path class="st3" d="M147.4,96.7c-0.4,0.1-0.7,0.1-1,0.1c-1.2,0-2-0.6-2-1.9v-2.6h-0.9v-1h0.9v-1.4h1.2v1.4h1.6v1h-1.6v2.5
						c0,0.7,0.4,0.9,1.1,0.9c0.2,0,0.4,0,0.7-0.1V96.7z"/>
				</g>
			</g>
		</g>
	</g>
</g>
</svg>
